<svg width="657.9px" height="122px" xmlns="http://www.w3.org/2000/svg" viewBox="-78.94687499999998 14 657.89375 122" style="background: rgba(0, 0, 0, 0)" preserveAspectRatio="xMidYMid"><defs><linearGradient id="editing-gradient-gradient" x1="0" x2="1" y1="0.5" y2="0.5" gradientUnits="objectBoundingBox"><stop offset="0" stop-color="#0063ff"></stop><stop offset="1" stop-color="#bf95f7"></stop></linearGradient></defs><g><g transform="matrix(1.3,0,0,1.7,-46.5,205.4)"><path d="M 10.6 -64.6 L -3.3 -64.6 L 4.8 -106.8 L 18.9 -106.8 L 10.6 -64.6 Z M 66.4 -63.3 L 66.4 -63.3 L 66.4 -63.3 Q 58.6 -63.3 58.6 -69.3 L 58.6 -69.3 L 58.6 -69.3 Q 58.6 -71.9 59.7 -77 L 59.7 -77 L 59.7 -77 Q 60.9 -82.1 61.2 -84.1 L 61.2 -84.1 L 61.2 -84.1 Q 62.1 -88.8 62.1 -90.3 L 62.1 -90.3 L 62.1 -90.3 Q 62.1 -93.5 59.7 -93.5 L 59.7 -93.5 L 59.7 -93.5 Q 58.1 -93.5 56.6 -91.3 L 56.6 -91.3 L 56.6 -91.3 Q 55 -89.1 54.3 -84.7 L 54.3 -84.7 L 50.4 -64.6 L 37.9 -63.3 L 41.3 -80.7 L 41.3 -80.7 Q 41.9 -83.6 42.4 -86.8 L 42.4 -86.8 L 42.4 -86.8 Q 42.9 -90.1 42.9 -90.6 L 42.9 -90.6 L 42.9 -90.6 Q 42.9 -93.5 40.8 -93.5 L 40.8 -93.5 L 40.8 -93.5 Q 39.3 -93.5 37.7 -91.4 L 37.7 -91.4 L 37.7 -91.4 Q 36.1 -89.2 35.2 -84.7 L 35.2 -84.7 L 31.3 -64.6 L 18.7 -63.3 L 25.4 -97.2 L 35.8 -98.5 L 34.7 -92 L 34.7 -92 Q 36.4 -95.5 39.5 -97 L 39.5 -97 L 39.5 -97 Q 42.5 -98.5 47.3 -98.5 L 47.3 -98.5 L 47.3 -98.5 Q 50.1 -98.5 51.9 -97.1 L 51.9 -97.1 L 51.9 -97.1 Q 53.7 -95.8 54.3 -93.6 L 54.3 -93.6 L 54.3 -93.6 Q 55.3 -95.9 58.1 -97.2 L 58.1 -97.2 L 58.1 -97.2 Q 60.9 -98.5 64.3 -98.5 L 64.3 -98.5 L 64.3 -98.5 Q 67.8 -98.5 69.5 -97.7 L 69.5 -97.7 L 69.5 -97.7 Q 71.2 -97 72.2 -95.8 L 72.2 -95.8 L 72.2 -95.8 Q 73.9 -93.5 73.9 -89.5 L 73.9 -89.5 L 73.9 -89.5 Q 73.9 -85.4 72.2 -77 L 72.2 -77 L 72.2 -77 Q 71.3 -72.9 71.3 -71.4 L 71.3 -71.4 L 71.3 -71.4 Q 71.3 -69.9 72.1 -69 L 72.1 -69 L 72.1 -69 Q 73 -68.1 74.3 -68 L 74.3 -68 L 74.3 -68 Q 73.7 -65.8 71.4 -64.6 L 71.4 -64.6 L 71.4 -64.6 Q 69.2 -63.3 66.4 -63.3 Z M 82 -66.5 L 82 -66.5 L 82 -66.5 Q 80.5 -68.1 79.8 -70.8 L 79.8 -70.8 L 79.8 -70.8 Q 79.2 -73.4 79.2 -77.7 L 79.2 -77.7 L 79.2 -77.7 Q 79.2 -82 80.6 -85.9 L 80.6 -85.9 L 80.6 -85.9 Q 82.1 -89.8 84.8 -92.6 L 84.8 -92.6 L 84.8 -92.6 Q 90.3 -98.5 99.4 -98.5 L 99.4 -98.5 L 99.4 -98.5 Q 102.6 -98.5 105 -97.4 L 105 -97.4 L 116 -98.5 L 111.2 -73.5 L 111.2 -73.5 Q 111 -72.7 111 -71.3 L 111 -71.3 L 111 -71.3 Q 111 -69.9 111.9 -69 L 111.9 -69 L 111.9 -69 Q 112.8 -68.1 114 -68 L 114 -68 L 114 -68 Q 113.4 -65.8 111.1 -64.6 L 111.1 -64.6 L 111.1 -64.6 Q 108.7 -63.3 106.1 -63.3 L 106.1 -63.3 L 106.1 -63.3 Q 103.5 -63.3 101.7 -64.3 L 101.7 -64.3 L 101.7 -64.3 Q 100 -65.3 99.4 -66.9 L 99.4 -66.9 L 99.4 -66.9 Q 98.4 -65.3 96.2 -64.3 L 96.2 -64.3 L 96.2 -64.3 Q 94.1 -63.3 91.2 -63.3 L 91.2 -63.3 L 91.2 -63.3 Q 88.2 -63.3 85.9 -64 L 85.9 -64 L 85.9 -64 Q 83.5 -64.8 82 -66.5 Z M 95.5 -92.5 L 95.5 -92.5 L 95.5 -92.5 Q 94.8 -91.3 94.1 -89.4 L 94.1 -89.4 L 94.1 -89.4 Q 93.5 -87.4 92.4 -82.2 L 92.4 -82.2 L 92.4 -82.2 Q 91.4 -77 91.4 -73.3 L 91.4 -73.3 L 91.4 -73.3 Q 91.4 -69.5 92 -68.5 L 92 -68.5 L 92 -68.5 Q 92.5 -67.4 93.6 -67.4 L 93.6 -67.4 L 93.6 -67.4 Q 95.6 -67.4 97.1 -69.3 L 97.1 -69.3 L 97.1 -69.3 Q 98.6 -71.3 99.2 -74.7 L 99.2 -74.7 L 102.6 -93.5 L 102.6 -93.5 Q 101.2 -94.6 99.7 -94.6 L 99.7 -94.6 L 99.7 -94.6 Q 98.1 -94.6 97.2 -94.1 L 97.2 -94.1 L 97.2 -94.1 Q 96.2 -93.6 95.5 -92.5 Z M 123.7 -91.3 L 123.7 -91.3 L 123.7 -91.3 Q 125.9 -94.4 129.2 -96.4 L 129.2 -96.4 L 129.2 -96.4 Q 132.5 -98.5 136.5 -98.5 L 136.5 -98.5 L 136.5 -98.5 Q 140.5 -98.5 142.5 -97.2 L 142.5 -97.2 L 155 -98.5 L 150.6 -73.9 L 150.6 -73.9 Q 148.4 -61.4 143.7 -56.4 L 143.7 -56.4 L 143.7 -56.4 Q 139.1 -51.8 130.3 -51.8 L 130.3 -51.8 L 130.3 -51.8 Q 123.6 -51.8 119.7 -53.9 L 119.7 -53.9 L 119.7 -53.9 Q 115.9 -56 115.9 -59.5 L 115.9 -59.5 L 115.9 -59.5 Q 115.9 -62.1 117.9 -63.6 L 117.9 -63.6 L 117.9 -63.6 Q 119.9 -65.1 122.9 -65.1 L 122.9 -65.1 L 122.9 -65.1 Q 125.6 -65.1 127.7 -63.9 L 127.7 -63.9 L 127.7 -63.9 Q 128.9 -63.3 129.5 -62.4 L 129.5 -62.4 L 129.5 -62.4 Q 128 -61.1 128 -59 L 128 -59 L 128 -59 Q 128 -56.2 130.5 -56.2 L 130.5 -56.2 L 130.5 -56.2 Q 134.8 -56.2 137.3 -66.3 L 137.3 -66.3 L 137.3 -66.3 Q 138 -69.1 138.5 -71.9 L 138.5 -71.9 L 138.5 -71.9 Q 135.7 -68.3 129.1 -68.3 L 129.1 -68.3 L 129.1 -68.3 Q 124.6 -68.3 122 -70.5 L 122 -70.5 L 122 -70.5 Q 119.3 -72.7 119.3 -77.8 L 119.3 -77.8 L 119.3 -77.8 Q 119.3 -81 120.4 -84.6 L 120.4 -84.6 L 120.4 -84.6 Q 121.5 -88.2 123.7 -91.3 Z M 132 -77.6 L 132 -77.6 L 132 -77.6 Q 132 -73.3 134.3 -73.3 L 134.3 -73.3 L 134.3 -73.3 Q 135.8 -73.3 137.3 -74.9 L 137.3 -74.9 L 137.3 -74.9 Q 138.4 -76.3 138.9 -78.3 L 138.9 -78.3 L 142.1 -94.7 L 142.1 -94.7 Q 141.8 -94.8 141.5 -94.9 L 141.5 -94.9 L 141.5 -94.9 Q 140.9 -95.1 140 -95.1 L 140 -95.1 L 140 -95.1 Q 136.1 -95.1 133.8 -88.7 L 133.8 -88.7 L 133.8 -88.7 Q 132 -83.8 132 -77.6 Z M 183.4 -75.4 L 183.4 -75.4 L 183.4 -75.4 Q 185 -74.3 185 -71.9 L 185 -71.9 L 185 -71.9 Q 185 -69.5 183.8 -67.9 L 183.8 -67.9 L 183.8 -67.9 Q 182.6 -66.4 180.6 -65.4 L 180.6 -65.4 L 180.6 -65.4 Q 176.5 -63.3 172.1 -63.3 L 172.1 -63.3 L 172.1 -63.3 Q 167.7 -63.3 165.1 -64.2 L 165.1 -64.2 L 165.1 -64.2 Q 162.5 -65.2 160.8 -67 L 160.8 -67 L 160.8 -67 Q 157.4 -70.4 157.4 -76.6 L 157.4 -76.6 L 157.4 -76.6 Q 157.4 -86.3 162.6 -92.1 L 162.6 -92.1 L 162.6 -92.1 Q 168.2 -98.5 178 -98.5 L 178 -98.5 L 178 -98.5 Q 184.1 -98.5 187.1 -95.9 L 187.1 -95.9 L 187.1 -95.9 Q 189.4 -94 189.4 -90.9 L 189.4 -90.9 L 189.4 -90.9 Q 189.4 -79.6 169.9 -79.6 L 169.9 -79.6 L 169.9 -79.6 Q 169.7 -77.9 169.7 -76.5 L 169.7 -76.5 L 169.7 -76.5 Q 169.7 -73.6 171 -72.5 L 171 -72.5 L 171 -72.5 Q 172.3 -71.3 174.7 -71.3 L 174.7 -71.3 L 174.7 -71.3 Q 177.1 -71.3 179.7 -72.5 L 179.7 -72.5 L 179.7 -72.5 Q 182.3 -73.6 183.4 -75.4 Z M 170.4 -82.3 L 170.4 -82.3 L 170.4 -82.3 Q 174.9 -82.3 177.5 -85.2 L 177.5 -85.2 L 177.5 -85.2 Q 180.1 -87.9 180.1 -92.1 L 180.1 -92.1 L 180.1 -92.1 Q 180.1 -93.6 179.6 -94.4 L 179.6 -94.4 L 179.6 -94.4 Q 179.1 -95.2 178 -95.2 L 178 -95.2 L 178 -95.2 Q 176.9 -95.2 176 -94.8 L 176 -94.8 L 176 -94.8 Q 175 -94.4 174.1 -93 L 174.1 -93 L 174.1 -93 Q 171.7 -89.8 170.4 -82.3 Z M 210.7 -87 L 210.7 -87 L 210.7 -87 Q 211.6 -89.4 211.6 -91.4 L 211.6 -91.4 L 211.6 -91.4 Q 211.6 -95.2 208.5 -95.2 L 208.5 -95.2 L 208.5 -95.2 Q 206.9 -95.2 205.6 -93.8 L 205.6 -93.8 L 205.6 -93.8 Q 204.3 -92.3 204.3 -90.5 L 204.3 -90.5 L 204.3 -90.5 Q 204.3 -89.3 205.3 -88.2 L 205.3 -88.2 L 205.3 -88.2 Q 206.8 -86.8 210.5 -84.5 L 210.5 -84.5 L 210.5 -84.5 Q 214.3 -82.2 215.8 -80.3 L 215.8 -80.3 L 215.8 -80.3 Q 217.2 -78.4 217.2 -75.9 L 217.2 -75.9 L 217.2 -75.9 Q 217.2 -73.3 216 -70.9 L 216 -70.9 L 216 -70.9 Q 214.7 -68.5 212.5 -66.9 L 212.5 -66.9 L 212.5 -66.9 Q 207.7 -63.3 200 -63.3 L 200 -63.3 L 200 -63.3 Q 195.8 -63.3 192.6 -65.5 L 192.6 -65.5 L 192.6 -65.5 Q 189.4 -67.6 189.4 -70.1 L 189.4 -70.1 L 189.4 -70.1 Q 189.4 -72.6 191.3 -74 L 191.3 -74 L 191.3 -74 Q 193.1 -75.5 195.8 -75.5 L 195.8 -75.5 L 195.8 -75.5 Q 198.5 -75.5 200.1 -74.5 L 200.1 -74.5 L 200.1 -74.5 Q 199.3 -72.4 199.3 -71 L 199.3 -71 L 199.3 -71 Q 199.3 -66.7 202.9 -66.7 L 202.9 -66.7 L 202.9 -66.7 Q 204.4 -66.7 205.4 -67.7 L 205.4 -67.7 L 205.4 -67.7 Q 206.5 -68.7 206.5 -70.3 L 206.5 -70.3 L 206.5 -70.3 Q 206.5 -73.6 200.9 -77 L 200.9 -77 L 200.9 -77 Q 196.5 -80 195.4 -81.1 L 195.4 -81.1 L 195.4 -81.1 Q 193.7 -83.2 193.7 -85.7 L 193.7 -85.7 L 193.7 -85.7 Q 193.7 -88.3 194.9 -90.7 L 194.9 -90.7 L 194.9 -90.7 Q 196.1 -93.2 198.4 -94.9 L 198.4 -94.9 L 198.4 -94.9 Q 203.1 -98.5 211.2 -98.5 L 211.2 -98.5 L 211.2 -98.5 Q 215.3 -98.5 217.8 -96.8 L 217.8 -96.8 L 217.8 -96.8 Q 220.3 -95.1 220.3 -92.3 L 220.3 -92.3 L 220.3 -92.3 Q 220.3 -89.5 218.6 -87.9 L 218.6 -87.9 L 218.6 -87.9 Q 216.9 -86.3 213.8 -86.3 L 213.8 -86.3 L 213.8 -86.3 Q 211.7 -86.3 210.7 -87 Z M 261.7 -85.2 L 274.7 -86.3 L 274.7 -86.3 Q 270.1 -76.2 270.1 -64.5 L 270.1 -64.5 L 270.1 -64.5 Q 268.3 -63.3 265.8 -63.3 L 265.8 -63.3 L 265.8 -63.3 Q 263.3 -63.3 261.7 -64.5 L 261.7 -64.5 L 261.7 -64.5 Q 260.1 -65.6 259.8 -66.9 L 259.8 -66.9 L 259.8 -66.9 Q 258.2 -65.2 255.6 -64.2 L 255.6 -64.2 L 255.6 -64.2 Q 253 -63.3 250.2 -63.3 L 250.2 -63.3 L 250.2 -63.3 Q 247.5 -63.3 245.1 -64.2 L 245.1 -64.2 L 245.1 -64.2 Q 242.7 -65.1 240.8 -67.1 L 240.8 -67.1 L 240.8 -67.1 Q 236.7 -71.4 236.7 -79.7 L 236.7 -79.7 L 236.7 -79.7 Q 236.7 -92.5 243.6 -100.1 L 243.6 -100.1 L 243.6 -100.1 Q 250.6 -108.1 263.1 -108.1 L 263.1 -108.1 L 263.1 -108.1 Q 271.7 -108.1 274.8 -103.6 L 274.8 -103.6 L 274.8 -103.6 Q 275.8 -102.2 275.8 -100.5 L 275.8 -100.5 L 275.8 -100.5 Q 275.8 -98.8 275 -97.4 L 275 -97.4 L 275 -97.4 Q 274.3 -95.9 273.1 -94.8 L 273.1 -94.8 L 273.1 -94.8 Q 270.4 -92.2 267 -92.2 L 267 -92.2 L 267 -92.2 Q 265.7 -92.2 264.4 -92.7 L 264.4 -92.7 L 264.4 -92.7 Q 264.6 -94.6 264.6 -96.8 L 264.6 -96.8 L 264.6 -96.8 Q 264.6 -99.1 264.5 -100.1 L 264.5 -100.1 L 264.5 -100.1 Q 264.3 -101.1 263.9 -101.9 L 263.9 -101.9 L 263.9 -101.9 Q 263.1 -103.7 261.3 -103.7 L 261.3 -103.7 L 261.3 -103.7 Q 259.4 -103.7 257.4 -101.7 L 257.4 -101.7 L 257.4 -101.7 Q 255.4 -99.8 253.8 -96.6 L 253.8 -96.6 L 253.8 -96.6 Q 250.3 -89.4 250.3 -80.7 L 250.3 -80.7 L 250.3 -80.7 Q 250.3 -76.8 251.8 -74 L 251.8 -74 L 251.8 -74 Q 253.5 -70.9 256.4 -70.9 L 256.4 -70.9 L 256.4 -70.9 Q 257.5 -70.9 258.4 -71.4 L 258.4 -71.4 L 258.4 -71.4 Q 259.3 -71.9 259.7 -72.3 L 259.7 -72.3 L 261.7 -85.2 Z M 280.6 -66.5 L 280.6 -66.5 L 280.6 -66.5 Q 279.1 -68.1 278.4 -70.8 L 278.4 -70.8 L 278.4 -70.8 Q 277.7 -73.4 277.7 -77.7 L 277.7 -77.7 L 277.7 -77.7 Q 277.7 -82 279.2 -85.9 L 279.2 -85.9 L 279.2 -85.9 Q 280.7 -89.8 283.4 -92.6 L 283.4 -92.6 L 283.4 -92.6 Q 288.9 -98.5 298 -98.5 L 298 -98.5 L 298 -98.5 Q 301.2 -98.5 303.6 -97.4 L 303.6 -97.4 L 314.5 -98.5 L 309.8 -73.5 L 309.8 -73.5 Q 309.6 -72.7 309.6 -71.3 L 309.6 -71.3 L 309.6 -71.3 Q 309.6 -69.9 310.5 -69 L 310.5 -69 L 310.5 -69 Q 311.3 -68.1 312.6 -68 L 312.6 -68 L 312.6 -68 Q 312 -65.8 309.7 -64.6 L 309.7 -64.6 L 309.7 -64.6 Q 307.3 -63.3 304.7 -63.3 L 304.7 -63.3 L 304.7 -63.3 Q 302.1 -63.3 300.3 -64.3 L 300.3 -64.3 L 300.3 -64.3 Q 298.5 -65.3 298 -66.9 L 298 -66.9 L 298 -66.9 Q 297 -65.3 294.8 -64.3 L 294.8 -64.3 L 294.8 -64.3 Q 292.7 -63.3 289.7 -63.3 L 289.7 -63.3 L 289.7 -63.3 Q 286.8 -63.3 284.5 -64 L 284.5 -64 L 284.5 -64 Q 282.1 -64.8 280.6 -66.5 Z M 294.1 -92.5 L 294.1 -92.5 L 294.1 -92.5 Q 293.4 -91.3 292.7 -89.4 L 292.7 -89.4 L 292.7 -89.4 Q 292.1 -87.4 291 -82.2 L 291 -82.2 L 291 -82.2 Q 290 -77 290 -73.3 L 290 -73.3 L 290 -73.3 Q 290 -69.5 290.5 -68.5 L 290.5 -68.5 L 290.5 -68.5 Q 291.1 -67.4 292.1 -67.4 L 292.1 -67.4 L 292.1 -67.4 Q 294.2 -67.4 295.7 -69.3 L 295.7 -69.3 L 295.7 -69.3 Q 297.2 -71.3 297.8 -74.7 L 297.8 -74.7 L 301.2 -93.5 L 301.2 -93.5 Q 299.8 -94.6 298.3 -94.6 L 298.3 -94.6 L 298.3 -94.6 Q 296.7 -94.6 295.8 -94.1 L 295.8 -94.1 L 295.8 -94.1 Q 294.8 -93.6 294.1 -92.5 Z M 333.3 -68.1 L 333.3 -68.1 L 333.3 -68.1 Q 331.3 -63.3 325 -63.3 L 325 -63.3 L 325 -63.3 Q 321.8 -63.3 319.7 -65.5 L 319.7 -65.5 L 319.7 -65.5 Q 318.1 -67.4 318.1 -69.5 L 318.1 -69.5 L 318.1 -69.5 Q 318.1 -74.3 320.3 -84.8 L 320.3 -84.8 L 325 -109.4 L 338 -110.6 L 331.8 -78.3 L 331.8 -78.3 Q 330.7 -73.5 330.7 -71.9 L 330.7 -71.9 L 330.7 -71.9 Q 330.7 -68.2 333.3 -68.1 Z M 354 -68.1 L 354 -68.1 L 354 -68.1 Q 352.1 -63.3 345.7 -63.3 L 345.7 -63.3 L 345.7 -63.3 Q 342.5 -63.3 340.5 -65.5 L 340.5 -65.5 L 340.5 -65.5 Q 338.8 -67.4 338.8 -69.5 L 338.8 -69.5 L 338.8 -69.5 Q 338.8 -74.3 341 -84.8 L 341 -84.8 L 345.7 -109.4 L 358.7 -110.6 L 352.5 -78.3 L 352.5 -78.3 Q 351.4 -73.5 351.4 -71.9 L 351.4 -71.9 L 351.4 -71.9 Q 351.4 -68.2 354 -68.1 Z M 385.4 -75.4 L 385.4 -75.4 L 385.4 -75.4 Q 387 -74.3 387 -71.9 L 387 -71.9 L 387 -71.9 Q 387 -69.5 385.8 -67.9 L 385.8 -67.9 L 385.8 -67.9 Q 384.6 -66.4 382.6 -65.4 L 382.6 -65.4 L 382.6 -65.4 Q 378.5 -63.3 374.1 -63.3 L 374.1 -63.3 L 374.1 -63.3 Q 369.7 -63.3 367.1 -64.2 L 367.1 -64.2 L 367.1 -64.2 Q 364.5 -65.2 362.7 -67 L 362.7 -67 L 362.7 -67 Q 359.3 -70.4 359.3 -76.6 L 359.3 -76.6 L 359.3 -76.6 Q 359.3 -86.3 364.6 -92.1 L 364.6 -92.1 L 364.6 -92.1 Q 370.2 -98.5 380 -98.5 L 380 -98.5 L 380 -98.5 Q 386.1 -98.5 389.1 -95.9 L 389.1 -95.9 L 389.1 -95.9 Q 391.3 -94 391.3 -90.9 L 391.3 -90.9 L 391.3 -90.9 Q 391.3 -79.6 371.9 -79.6 L 371.9 -79.6 L 371.9 -79.6 Q 371.6 -77.9 371.6 -76.5 L 371.6 -76.5 L 371.6 -76.5 Q 371.6 -73.6 372.9 -72.5 L 372.9 -72.5 L 372.9 -72.5 Q 374.3 -71.3 376.7 -71.3 L 376.7 -71.3 L 376.7 -71.3 Q 379.1 -71.3 381.7 -72.5 L 381.7 -72.5 L 381.7 -72.5 Q 384.3 -73.6 385.4 -75.4 Z M 372.3 -82.3 L 372.3 -82.3 L 372.3 -82.3 Q 376.9 -82.3 379.5 -85.2 L 379.5 -85.2 L 379.5 -85.2 Q 382.1 -87.9 382.1 -92.1 L 382.1 -92.1 L 382.1 -92.1 Q 382.1 -93.6 381.6 -94.4 L 381.6 -94.4 L 381.6 -94.4 Q 381 -95.2 380 -95.2 L 380 -95.2 L 380 -95.2 Q 378.9 -95.2 377.9 -94.8 L 377.9 -94.8 L 377.9 -94.8 Q 377 -94.4 376.1 -93 L 376.1 -93 L 376.1 -93 Q 373.7 -89.8 372.3 -82.3 Z M 413.6 -82.5 L 413.6 -82.5 L 413.6 -82.5 Q 415.9 -86.6 415.9 -90.8 L 415.9 -90.8 L 415.9 -90.8 Q 415.9 -93.5 413.9 -93.5 L 413.9 -93.5 L 413.9 -93.5 Q 412.3 -93.5 410.7 -90.9 L 410.7 -90.9 L 410.7 -90.9 Q 409.1 -88.3 408.6 -84.9 L 408.6 -84.9 L 405.2 -64.6 L 392 -63.3 L 398.5 -97.2 L 409.1 -98.5 L 407.9 -92 L 407.9 -92 Q 411.1 -98.5 418.1 -98.5 L 418.1 -98.5 L 418.1 -98.5 Q 421.8 -98.5 423.8 -96.6 L 423.8 -96.6 L 423.8 -96.6 Q 425.8 -94.6 425.8 -90.7 L 425.8 -90.7 L 425.8 -90.7 Q 425.8 -86.8 423.3 -84.3 L 423.3 -84.3 L 423.3 -84.3 Q 420.7 -81.8 416.2 -81.8 L 416.2 -81.8 L 416.2 -81.8 Q 414.3 -81.8 413.6 -82.5 Z M 447.2 -71.8 L 447.2 -71.8 L 447.2 -71.8 Q 443.9 -68.3 437.8 -68.3 L 437.8 -68.3 L 437.8 -68.3 Q 430.2 -68.3 428.6 -73.9 L 428.6 -73.9 L 428.6 -73.9 Q 428.1 -75.6 428.1 -77.4 L 428.1 -77.4 L 428.1 -77.4 Q 428.1 -79.3 428.5 -81.2 L 428.5 -81.2 L 431.5 -97.2 L 444.5 -98.5 L 440.9 -79.9 L 440.9 -79.9 Q 440.8 -79 440.6 -78.1 L 440.6 -78.1 L 440.6 -78.1 Q 440.4 -77.2 440.4 -76.3 L 440.4 -76.3 L 440.4 -76.3 Q 440.4 -75.4 440.8 -74.8 L 440.8 -74.8 L 440.8 -74.8 Q 441.1 -74.2 441.5 -73.8 L 441.5 -73.8 L 441.5 -73.8 Q 442.3 -73.3 443.7 -73.3 L 443.7 -73.3 L 443.7 -73.3 Q 445 -73.3 446.2 -74.9 L 446.2 -74.9 L 446.2 -74.9 Q 447.4 -76.6 448 -79.5 L 448 -79.5 L 451.5 -97.2 L 464.1 -98.5 L 459.3 -73.3 L 459.3 -73.3 Q 456.9 -61 452.1 -56.2 L 452.1 -56.2 L 452.1 -56.2 Q 449.6 -53.7 446.4 -52.7 L 446.4 -52.7 L 446.4 -52.7 Q 443.1 -51.7 439 -51.7 L 439 -51.7 L 439 -51.7 Q 432.2 -51.7 428.4 -53.8 L 428.4 -53.8 L 428.4 -53.8 Q 424.6 -55.9 424.6 -59.4 L 424.6 -59.4 L 424.6 -59.4 Q 424.6 -62.1 426.5 -63.6 L 426.5 -63.6 L 426.5 -63.6 Q 428.5 -65.1 431.6 -65.1 L 431.6 -65.1 L 431.6 -65.1 Q 434.3 -65.1 436.3 -63.9 L 436.3 -63.9 L 436.3 -63.9 Q 437.6 -63.2 438.1 -62.3 L 438.1 -62.3 L 438.1 -62.3 Q 436.7 -61 436.7 -58.9 L 436.7 -58.9 L 436.7 -58.9 Q 436.7 -56.1 439.2 -56.1 L 439.2 -56.1 L 439.2 -56.1 Q 443.4 -56.1 445.9 -65.8 L 445.9 -65.8 L 445.9 -65.8 Q 446.6 -68.7 447.2 -71.8 Z" fill="url(#editing-gradient-gradient)"></path></g></g><style>text {
  font-size: 64px;
  font-family: Arial Black;
  dominant-baseline: central;
  text-anchor: middle;
}</style></svg>